# xmcd CD database file
#
# Track frame offsets:
#	150
#	37321
#	61210
#	97489
#	120432
#	137965
#	174156
#	198655
#	219030
#
# Disc length: 3556 seconds
#
# Revision: 0
# Processed by: cddbd v1.5PL3 Copyright (c) Steve Scherf et al.
# Submitted via: CDex 1.51
#
DISCID=850de209
DTITLE=David Feder - new age guitar
DYEAR=1900
DGENRE=New Age
TTITLE0=warm wind
TTITLE1=sal-agua
TTITLE2=waiting for sara
TTITLE3=vancouver nights
TTITLE4=son for nuga
TTITLE5=creo (I believe)
TTITLE6=sobrina
TTITLE7=love and fear
TTITLE8=bones lullaby
EXTD=
EXTT0=
EXTT1=
EXTT2=
EXTT3=
EXTT4=
EXTT5=
EXTT6=
EXTT7=
EXTT8=
PLAYORDER=
